# Made in Blockbench 5.1.3 by WinDanesz
mtllib celestial_prism.mtl

o pyramid
v 0 1.8125 0
v 0.1875 1.5625 0.1875
v 0.1875 1.5625 -0.1875
v -0.1875 1.5625 0.1875
v -0.1875 1.5625 -0.1875
v 0.1875 1.5625 0.1875
v 0.1875 1.5625 -0.1875
v 0.1875 0 0.1875
v 0.1875 0 -0.1875
v -0.1875 1.5625 0.1875
v -0.1875 1.5625 -0.1875
v -0.1875 0 0.1875
v -0.1875 0 -0.1875
vt 0.671875 0.34375
vt 0.671875 0.4375
vt 0.578125 0.4375
vt 0.578125 0.34375
vt 0.6875 0.40625
vt 0.78125 0.40625
vt 0.734375 0.484375
vt 0.65625 0.5
vt 0.75 0.5
vt 0.703125 0.578125
vt 0.65625 0.265625
vt 0.75 0.265625
vt 0.703125 0.34375
vt 0.703125 0.921875
vt 0.796875 0.921875
vt 0.75 1
vt 0.09375 0.609375
vt 0.09375 1
vt 0 1
vt 0 0.609375
vt 0.203125 0.609375
vt 0.203125 1
vt 0.109375 1
vt 0.109375 0.609375
vt 0.6875 0.90625
vt 0.6875 1
vt 0.59375 1
vt 0.59375 0.90625
vt 0.75 0.796875
vt 0.75 0.890625
vt 0.65625 0.890625
vt 0.65625 0.796875
vt 0.3125 0.609375
vt 0.3125 1
vt 0.21875 1
vt 0.21875 0.609375
vt 0.421875 0.609375
vt 0.421875 1
vt 0.328125 1
vt 0.328125 0.609375
vn 0 -1 0
vn 0.8 0.6 0
vn 0 0.6 0.8
vn 0 0.6 -0.8
vn -0.8 0.6 0
vn 1 0 0
vn -1 0 0
vn 0 1 0
vn 0 -1 0
vn 0 0 1
vn 0 0 -1
usemtl m_268e21ae-5958-2929-f9f9-9e7cd8561ad8
f 3/1/1 2/2/1 4/3/1 5/4/1
f 2/5/2 3/6/2 1/7/2
f 4/8/3 2/9/3 1/10/3
f 3/11/4 5/12/4 1/13/4
f 5/14/5 4/15/5 1/16/5
f 9/17/6 7/18/6 6/19/6 8/20/6
f 12/21/7 10/22/7 11/23/7 13/24/7
f 6/25/8 7/26/8 11/27/8 10/28/8
f 9/29/9 8/30/9 12/31/9 13/32/9
f 8/33/10 6/34/10 10/35/10 12/36/10
f 13/37/11 11/38/11 7/39/11 9/40/11
o pyramid
v 0.15625 0.9366675902075694 -0.3315653187260502
v 0.25 0.75805193519796 -0.22183036401476317
v 0.25 0.7417102334327741 -0.40861686990696544
v 0.0625 0.75805193519796 -0.22183036401476317
v 0.0625 0.7417102334327741 -0.40861686990696544
v 0.25 0.75805193519796 -0.22183036401476317
v 0.25 0.7417102334327741 -0.40861686990696544
v 0.25 0.010905911629150888 -0.15646355695401953
v 0.25 -0.0054357901360350125 -0.34325006284622184
v 0.0625 0.75805193519796 -0.22183036401476317
v 0.0625 0.7417102334327741 -0.40861686990696544
v 0.0625 0.010905911629150888 -0.15646355695401953
v 0.0625 -0.0054357901360350125 -0.34325006284622184
vt 0.828125 0.078125
vt 0.828125 0.125
vt 0.78125 0.125
vt 0.78125 0.078125
vt 0.5176670896878677 0.774226760163436
vt 0.5604579103121323 0.7550901121993332
vt 0.5604579103121323 0.8125
vt 0.5957920896878677 0.852351760163436
vt 0.6385829103121323 0.8332151121993332
vt 0.6385829103121323 0.890625
vt 0.7207920896878677 0.08672676016343595
vt 0.7635829103121323 0.0675901121993332
vt 0.7635829103121323 0.125
vt 0.6582920896878677 0.08672676016343595
vt 0.7010829103121323 0.0675901121993332
vt 0.7010829103121323 0.125
vt 0.703125 0.59375
vt 0.703125 0.78125
vt 0.65625 0.78125
vt 0.65625 0.59375
vt 0.046875 0.140625
vt 0.046875 0.328125
vt 0 0.328125
vt 0 0.140625
vt 0.9375 0.953125
vt 0.9375 1
vt 0.890625 1
vt 0.890625 0.953125
vt 0.890625 0.0625
vt 0.890625 0.109375
vt 0.84375 0.109375
vt 0.84375 0.0625
vt 0.109375 0.140625
vt 0.109375 0.328125
vt 0.0625 0.328125
vt 0.0625 0.140625
vt 0.171875 0.140625
vt 0.171875 0.328125
vt 0.125 0.328125
vt 0.125 0.140625
vn 0 -0.9961946980917455 0.08715574274765818
vn 0.8944271909999159 0.4455118127516046 -0.038977233082649596
vn 0 0.5234662789169038 0.8520463924205597
vn 0 0.36755734658630546 -0.9300008585858588
vn -0.8944271909999159 0.4455118127516046 -0.038977233082649596
vn 1 0 0
vn -1 0 0
vn 0 0.9961946980917455 -0.08715574274765818
vn 0 -0.9961946980917455 0.08715574274765818
vn 0 0.08715574274765818 0.9961946980917455
vn 0 -0.08715574274765818 -0.9961946980917455
usemtl m_268e21ae-5958-2929-f9f9-9e7cd8561ad8
f 16/41/12 15/42/12 17/43/12 18/44/12
f 15/45/13 16/46/13 14/47/13
f 17/48/14 15/49/14 14/50/14
f 16/51/15 18/52/15 14/53/15
f 18/54/16 17/55/16 14/56/16
f 22/57/17 20/58/17 19/59/17 21/60/17
f 25/61/18 23/62/18 24/63/18 26/64/18
f 19/65/19 20/66/19 24/67/19 23/68/19
f 22/69/20 21/70/20 25/71/20 26/72/20
f 21/73/21 19/74/21 23/75/21 25/76/21
f 26/77/22 24/78/22 20/79/22 22/80/22
o pyramid
v 0.27768185308646653 0.5468918058956983 0.3330006610445194
v 0.40017213104362687 0.42607697931528854 0.3581856661928839
v 0.3284189874751725 0.4635702535669244 0.18906443519589644
v 0.22694471869776062 0.4105467566224871 0.4282379737570692
v 0.15519157512930626 0.4480400308741229 0.25911674276008173
v 0.40017213104362687 0.42607697931528854 0.3581856661928839
v 0.3284189874751725 0.4635702535669244 0.18906443519589644
v 0.40017213104362687 -0.013256223888681418 0.2607878399207376
v 0.3284189874751725 0.024237050362954426 0.09166660892375017
v 0.22694471869776062 0.4105467566224871 0.4282379737570692
v 0.15519157512930626 0.4480400308741229 0.25911674276008173
v 0.22694471869776062 -0.028786446581482994 0.3308401474849229
v 0.15519157512930626 0.00870682767015285 0.16171891648793546
vt 0.203125 0.03125
vt 0.203125 0.078125
vt 0.15625 0.078125
vt 0.15625 0.03125
vt 0.9375 0.5883890625
vt 0.984375 0.5883890625
vt 0.9609375 0.625
vt 0.21875 0.025889062500000004
vt 0.265625 0.025889062500000004
vt 0.2421875 0.0625
vt 0.9375 0.7133890625
vt 0.984375 0.7133890625
vt 0.9609375 0.75
vt 0.78125 0.025890624999999945
vt 0.828125 0.025890624999999945
vt 0.8046875 0.0625
vt 0.296875 0.171875
vt 0.296875 0.28125
vt 0.25 0.28125
vt 0.25 0.171875
vt 0.359375 0.171875
vt 0.359375 0.28125
vt 0.3125 0.28125
vt 0.3125 0.171875
vt 0.96875 0.390625
vt 0.96875 0.4375
vt 0.921875 0.4375
vt 0.921875 0.390625
vt 0.96875 0.328125
vt 0.96875 0.375
vt 0.921875 0.375
vt 0.921875 0.328125
vt 0.421875 0.171875
vt 0.421875 0.28125
vt 0.375 0.28125
vt 0.375 0.171875
vt 0.484375 0.171875
vt 0.484375 0.28125
vt 0.4375 0.28125
vt 0.4375 0.171875
vn -1.3877787807814457e-17 -0.9762960071199334 -0.21643961393810288
vn 0.7097439166596461 0.688639593476883 -0.14845566025119641
vn 0.2939855560922251 0.4713927738961724 0.8314814162250515
vn -0.29398555609222515 0.7786261725296343 -0.5543588875998992
vn -0.7097439166596461 0.5613793529489235 0.4255781888763488
vn 0.9238795325112867 0.08282785436160812 -0.37361230700898823
vn -0.9238795325112867 -0.08282785436160812 0.37361230700898823
vn 1.3877787807814457e-17 0.9762960071199334 0.21643961393810288
vn -1.3877787807814457e-17 -0.9762960071199334 -0.21643961393810288
vn 0.3826834323650899 -0.1999641293420579 0.9019798986506001
vn -0.3826834323650899 0.1999641293420579 -0.9019798986506001
usemtl m_268e21ae-5958-2929-f9f9-9e7cd8561ad8
f 29/81/23 28/82/23 30/83/23 31/84/23
f 28/85/24 29/86/24 27/87/24
f 30/88/25 28/89/25 27/90/25
f 29/91/26 31/92/26 27/93/26
f 31/94/27 30/95/27 27/96/27
f 35/97/28 33/98/28 32/99/28 34/100/28
f 38/101/29 36/102/29 37/103/29 39/104/29
f 32/105/30 33/106/30 37/107/30 36/108/30
f 35/109/31 34/110/31 38/111/31 39/112/31
f 34/113/32 32/114/32 36/115/32 38/116/32
f 39/117/33 37/118/33 33/119/33 35/120/33
o pyramid
v -0.078125 0.5432752422816315 -0.34917650555209157
v 0.015625 0.4487638867240328 -0.2373153587196674
v 0.015625 0.41620485341148333 -0.42196681240945644
v -0.171875 0.4487638867240328 -0.2373153587196674
v -0.171875 0.41620485341148333 -0.42196681240945644
v 0.015625 0.4487638867240328 -0.2373153587196674
v 0.015625 0.41620485341148333 -0.42196681240945644
v 0.015625 0.005600397868539164 -0.15917367876954874
v 0.015625 -0.026958635444010226 -0.34382513245933777
v -0.171875 0.4487638867240328 -0.2373153587196674
v -0.171875 0.41620485341148333 -0.42196681240945644
v -0.171875 0.005600397868539164 -0.15917367876954874
v -0.171875 -0.026958635444010226 -0.34382513245933777
vt 0.953125 0.453125
vt 0.953125 0.5
vt 0.90625 0.5
vt 0.90625 0.453125
vt 0.34375 0.025889062500000004
vt 0.390625 0.025889062500000004
vt 0.3671875 0.0625
vt 0.9375 0.8383890625
vt 0.984375 0.8383890625
vt 0.9609375 0.875
vt 0.9375 0.7758890625
vt 0.984375 0.7758890625
vt 0.9609375 0.8125
vt 0.9375 0.525890625
vt 0.984375 0.525890625
vt 0.9609375 0.5625
vt 0.484375 0.625
vt 0.484375 0.734375
vt 0.4375 0.734375
vt 0.4375 0.625
vt 0.625 0.21875
vt 0.625 0.328125
vt 0.578125 0.328125
vt 0.578125 0.21875
vt 0.953125 0.0625
vt 0.953125 0.109375
vt 0.90625 0.109375
vt 0.90625 0.0625
vt 0.96875 0.890625
vt 0.96875 0.9375
vt 0.921875 0.9375
vt 0.921875 0.890625
vt 0.234375 0.171875
vt 0.234375 0.28125
vt 0.1875 0.28125
vt 0.1875 0.171875
vt 0.765625 0.671875
vt 0.765625 0.78125
vt 0.71875 0.78125
vt 0.71875 0.671875
vn 0 -0.984807753012208 0.17364817766693033
vn 0.7682212795973759 0.6304585601470458 -0.11116685437253475
vn 0 0.7638587853940875 0.6453834178039204
vn 0 0.4970583349000041 -0.8677171265489898
vn -0.7682212795973759 0.6304585601470458 -0.11116685437253475
vn 1 0 0
vn -1 0 0
vn 0 0.984807753012208 -0.17364817766693033
vn 0 -0.984807753012208 0.17364817766693033
vn 0 0.17364817766693033 0.984807753012208
vn 0 -0.17364817766693033 -0.984807753012208
usemtl m_268e21ae-5958-2929-f9f9-9e7cd8561ad8
f 42/121/34 41/122/34 43/123/34 44/124/34
f 41/125/35 42/126/35 40/127/35
f 43/128/36 41/129/36 40/130/36
f 42/131/37 44/132/37 40/133/37
f 44/134/38 43/135/38 40/136/38
f 48/137/39 46/138/39 45/139/39 47/140/39
f 51/141/40 49/142/40 50/143/40 52/144/40
f 45/145/41 46/146/41 50/147/41 49/148/41
f 48/149/42 47/150/42 51/151/42 52/152/42
f 47/153/43 45/154/43 49/155/43 51/156/43
f 52/157/44 50/158/44 46/159/44 48/160/44
o pyramid
v -0.2919914092647696 0.5514150006097688 0.3249400432451172
v -0.1494804277218852 0.4569036450521701 0.3564455794308231
v -0.23605829270345408 0.4569036450521701 0.19013104820990656
v -0.3132682675068348 0.4243446117396207 0.4417081321039163
v -0.3998461324884036 0.4243446117396207 0.2753936008829997
v -0.1494804277218852 0.4569036450521701 0.3564455794308231
v -0.23605829270345408 0.4569036450521701 0.19013104820990656
v -0.08016791108338456 0.013740156196676567 0.32036376707799996
v -0.1667457760649534 0.013740156196676567 0.1540492358570834
v -0.3132682675068348 0.4243446117396207 0.4417081321039163
v -0.3998461324884036 0.4243446117396207 0.2753936008829997
v -0.2439557508683341 -0.018818877115872934 0.40562631975109315
v -0.330533615849903 -0.018818877115872934 0.23931178853017657
vt 0.96875 0.265625
vt 0.96875 0.3125
vt 0.921875 0.3125
vt 0.921875 0.265625
vt 0.40625 0.025889062500000004
vt 0.453125 0.025889062500000004
vt 0.4296875 0.0625
vt 0.28125 0.025889062500000004
vt 0.328125 0.025889062500000004
vt 0.3046875 0.0625
vt 0.9375 0.6508890625
vt 0.984375 0.6508890625
vt 0.9609375 0.6875
vt 0.953125 0.963390625
vt 1 0.963390625
vt 0.9765625 1
vt 0.546875 0.171875
vt 0.546875 0.28125
vt 0.5 0.28125
vt 0.5 0.171875
vt 0.796875 0.546875
vt 0.796875 0.65625
vt 0.75 0.65625
vt 0.75 0.546875
vt 0.96875 0.203125
vt 0.96875 0.25
vt 0.921875 0.25
vt 0.921875 0.203125
vt 0.96875 0.140625
vt 0.96875 0.1875
vt 0.921875 0.1875
vt 0.921875 0.140625
vt 0.6875 0.140625
vt 0.6875 0.25
vt 0.640625 0.25
vt 0.640625 0.140625
vt 0.75 0.140625
vt 0.75 0.25
vt 0.703125 0.25
vt 0.703125 0.140625
vn 0.15402781475222374 -0.9848077530122081 -0.08018180522849587
vn 0.5724620831456637 0.7638587853940877 -0.2980048981758467
vn 0.25611890639294743 0.6304585601470458 0.7327517381251268
vn -0.45333131463051557 0.6304585601470458 -0.6300894564366891
vn -0.7696744913832317 0.4970583349000042 0.40066717986428435
vn 0.8735351455197312 0.17364817766693036 -0.45473361425649694
vn -0.8735351455197312 -0.17364817766693036 0.45473361425649694
vn -0.15402781475222374 0.9848077530122081 0.08018180522849587
vn 0.15402781475222374 -0.9848077530122081 -0.08018180522849587
vn 0.46174861323503397 0 0.8870108331782219
vn -0.46174861323503397 0 -0.8870108331782219
usemtl m_268e21ae-5958-2929-f9f9-9e7cd8561ad8
f 55/161/45 54/162/45 56/163/45 57/164/45
f 54/165/46 55/166/46 53/167/46
f 56/168/47 54/169/47 53/170/47
f 55/171/48 57/172/48 53/173/48
f 57/174/49 56/175/49 53/176/49
f 61/177/50 59/178/50 58/179/50 60/180/50
f 64/181/51 62/182/51 63/183/51 65/184/51
f 58/185/52 59/186/52 63/187/52 62/188/52
f 61/189/53 60/190/53 64/191/53 65/192/53
f 60/193/54 58/194/54 62/195/54 64/196/54
f 65/197/55 63/198/55 59/199/55 61/200/55
o cube
v -0.23139093799518995 0.7146347727883287 0.125
v -0.23139093799518995 0.7146347727883287 -0.125
v -0.05345284448720694 0.05056076721459424 0.125
v -0.05345284448720694 0.05056076721459424 -0.125
v -0.472872394567457 0.6499300115126985 0.125
v -0.472872394567457 0.6499300115126985 -0.125
v -0.294934301059474 -0.014143994061035947 0.125
v -0.294934301059474 -0.014143994061035947 -0.125
v -0.4006602372380461 0.8633934845797138 0
v -0.23139093799518995 0.7146347727883285 0.125
v -0.23139093799518995 0.7146347727883285 -0.125
v -0.472872394567457 0.6499300115126984 0.125
v -0.472872394567457 0.6499300115126984 -0.125
vt 0.578125 0.828125
vt 0.578125 1
vt 0.515625 1
vt 0.515625 0.828125
vt 0.5625 0.296875
vt 0.5625 0.46875
vt 0.5 0.46875
vt 0.5 0.296875
vt 0.828125 0.140625
vt 0.828125 0.203125
vt 0.765625 0.203125
vt 0.765625 0.140625
vt 0.875 0.9375
vt 0.875 1
vt 0.8125 1
vt 0.8125 0.9375
vt 0.640625 0.640625
vt 0.640625 0.8125
vt 0.578125 0.8125
vt 0.578125 0.640625
vt 0.640625 0.453125
vt 0.640625 0.625
vt 0.578125 0.625
vt 0.578125 0.453125
vt 0.875 0.59375
vt 0.875 0.65625
vt 0.8125 0.65625
vt 0.8125 0.59375
vt 0.8632975808523364 0.7940174486783109
vt 0.9179524191476636 0.7637008088428734
vt 0.9179524191476636 0.828125
vt 0.42579758085233643 0.12214244867831103
vt 0.48045241914766357 0.09182580884287328
vt 0.4804524191476635 0.15625
vt 0.8476725808523364 0.26276744867831103
vt 0.9023274191476636 0.23245080884287328
vt 0.9023274191476636 0.296875
vt 0.8476725808523364 0.16901744867831103
vt 0.9023274191476636 0.13870080884287328
vt 0.9023274191476636 0.203125
vn 0.9659258262890683 0.25881904510252074 0
vn -0.9659258262890683 -0.25881904510252074 0
vn -0.25881904510252074 0.9659258262890683 0
vn 0.25881904510252074 -0.9659258262890683 0
vn 0 0 1
vn 0 0 -1
vn 0.25881904510252074 -0.9659258262890683 0
vn 0.6601318929671496 0.7511497080393549 0
vn -0.1435669751051947 0.5357992453815628 0.8320502943378437
vn -0.1435669751051947 0.5357992453815628 -0.8320502943378437
vn -0.9472658431775388 0.32044878272377075 0
usemtl m_268e21ae-5958-2929-f9f9-9e7cd8561ad8
f 69/201/56 67/202/56 66/203/56 68/204/56
f 72/205/57 70/206/57 71/207/57 73/208/57
f 66/209/58 67/210/58 71/211/58 70/212/58
f 69/213/59 68/214/59 72/215/59 73/216/59
f 68/217/60 66/218/60 70/219/60 72/220/60
f 73/221/61 71/222/61 67/223/61 69/224/61
f 76/225/62 75/226/62 77/227/62 78/228/62
f 75/229/63 76/230/63 74/231/63
f 77/232/64 75/233/64 74/234/64
f 76/235/65 78/236/65 74/237/65
f 78/238/66 77/239/66 74/240/66
o cube
v 0.4634039576600065 0.9624456633185097 0.15625
v 0.4634039576600065 0.9624456633185097 -0.15625
v 0.4210237574357312 -0.00822050651386369 0.15625
v 0.4210237574357312 -0.00822050651386369 -0.15625
v 0.2136419022645421 0.9733505101598436 0.15625
v 0.2136419022645421 0.9733505101598436 -0.15625
v 0.17126170204026678 0.0026843403274702804 0.15625
v 0.17126170204026678 0.0026843403274702804 -0.15625
v 0.345214540524002 1.1211611661863934 0
v 0.4634039576600065 0.9624456633185094 0.15625
v 0.4634039576600065 0.9624456633185094 -0.15625
v 0.2136419022645421 0.9733505101598434 0.15625
v 0.2136419022645421 0.9733505101598434 -0.15625
vt 0.078125 0.34375
vt 0.078125 0.59375
vt 0 0.59375
vt 0 0.34375
vt 0.171875 0.34375
vt 0.171875 0.59375
vt 0.09375 0.59375
vt 0.09375 0.34375
vt 0.8125 0.3125
vt 0.8125 0.390625
vt 0.75 0.390625
vt 0.75 0.3125
vt 0.828125 0.828125
vt 0.828125 0.90625
vt 0.765625 0.90625
vt 0.765625 0.828125
vt 0.5 0.75
vt 0.5 1
vt 0.4375 1
vt 0.4375 0.75
vt 0.5625 0.484375
vt 0.5625 0.734375
vt 0.5 0.734375
vt 0.5 0.484375
vt 0.828125 0.21875
vt 0.828125 0.296875
vt 0.765625 0.296875
vt 0.765625 0.21875
vt 0.828125 0.40365312499999995
vt 0.90625 0.40365312499999995
vt 0.8671875 0.453125
vt 0.5822357305604179 0.09295144606338346
vt 0.6365142694395821 0.06196612345504082
vt 0.636514269439582 0.125
vt 0.5041107305604179 0.09295144606338346
vt 0.5583892694395821 0.06196612345504082
vt 0.558389269439582 0.125
vt 0.828125 0.32552812500000006
vt 0.90625 0.32552812500000006
vt 0.8671875 0.375
vn 0.9990482215818578 -0.043619387365336 0
vn -0.9990482215818578 0.043619387365336 0
vn 0.043619387365336 0.9990482215818578 0
vn -0.043619387365336 -0.9990482215818578 0
vn 0 0 1
vn 0 0 -1
vn -0.043619387365336 -0.9990482215818578 0
vn 0.8020503207340357 0.5972564633475559 0
vn 0.031125223233452435 0.7128848155815781 0.700590079998202
vn 0.031125223233452435 0.7128848155815781 -0.700590079998202
vn -0.7469439464441346 0.6648870136124344 0
usemtl m_268e21ae-5958-2929-f9f9-9e7cd8561ad8
f 82/241/67 80/242/67 79/243/67 81/244/67
f 85/245/68 83/246/68 84/247/68 86/248/68
f 79/249/69 80/250/69 84/251/69 83/252/69
f 82/253/70 81/254/70 85/255/70 86/256/70
f 81/257/71 79/258/71 83/259/71 85/260/71
f 86/261/72 84/262/72 80/263/72 82/264/72
f 89/265/73 88/266/73 90/267/73 91/268/73
f 88/269/74 89/270/74 87/271/74
f 90/272/75 88/273/75 87/274/75
f 89/275/76 91/276/76 87/277/76
f 91/278/77 90/279/77 87/280/77
o cube
v 0.125 1.1739893870946179 0.4969439104004832
v 0.125 1.1957783227815324 0.2478952358775468
v 0.125 -0.008991816889330151 0.3934464658876391
v 0.125 0.012797118797584384 0.1443977913647027
v -0.125 1.1739893870946179 0.4969439104004832
v -0.125 1.1957783227815324 0.2478952358775468
v -0.125 -0.008991816889330151 0.3934464658876391
v -0.125 0.012797118797584384 0.1443977913647027
v 0 1.3716703608302774 0.3887612749042009
v 0.125 1.1739893870946179 0.4969439104004832
v 0.125 1.1957783227815324 0.2478952358775468
v -0.125 1.1739893870946179 0.4969439104004832
v -0.125 1.1957783227815324 0.2478952358775468
vt 0.25 0.296875
vt 0.25 0.59375
vt 0.1875 0.59375
vt 0.1875 0.296875
vt 0.328125 0.296875
vt 0.328125 0.59375
vt 0.265625 0.59375
vt 0.265625 0.296875
vt 0.84375 0.671875
vt 0.84375 0.734375
vt 0.78125 0.734375
vt 0.78125 0.671875
vt 0.84375 0.46875
vt 0.84375 0.53125
vt 0.78125 0.53125
vt 0.78125 0.46875
vt 0.40625 0.296875
vt 0.40625 0.59375
vt 0.34375 0.59375
vt 0.34375 0.296875
vt 0.484375 0.296875
vt 0.484375 0.59375
vt 0.421875 0.59375
vt 0.421875 0.296875
vt 0.625 0.140625
vt 0.625 0.203125
vt 0.5625 0.203125
vt 0.5625 0.140625
vt 0.003922759187499628 0.09089445804115748
vt 0.058577240812500375 0.060577175209372336
vt 0.05857724081250036 0.125
vt 0.8632977591874996 0.7002694580411575
vt 0.9179522408125004 0.6699521752093724
vt 0.9179522408125004 0.734375
vt 0.8632977591874996 0.5596444580411575
vt 0.9179522408125004 0.5293271752093724
vt 0.9179522408125004 0.59375
vt 0.08204775918749962 0.09089445804115748
vt 0.13670224081250038 0.060577175209372336
vt 0.13670224081250038 0.125
vn 1 0 0
vn -1 0 0
vn 0 0.9961946980917455 0.08715574274765818
vn 0 -0.9961946980917455 -0.08715574274765818
vn 0 -0.08715574274765818 0.9961946980917455
vn 0 0.08715574274765818 -0.9961946980917455
vn 0 -0.9961946980917455 -0.08715574274765818
vn 0.8320502943378437 0.5525893945100242 0.04834530760428159
vn 0 0.48007143310360184 0.8772293993693178
vn 0 0.6251073559164466 -0.7805387841607546
vn -0.8320502943378437 0.5525893945100242 0.04834530760428159
usemtl m_268e21ae-5958-2929-f9f9-9e7cd8561ad8
f 95/281/78 93/282/78 92/283/78 94/284/78
f 98/285/79 96/286/79 97/287/79 99/288/79
f 92/289/80 93/290/80 97/291/80 96/292/80
f 95/293/81 94/294/81 98/295/81 99/296/81
f 94/297/82 92/298/82 96/299/82 98/300/82
f 99/301/83 97/302/83 93/303/83 95/304/83
f 102/305/84 101/306/84 103/307/84 104/308/84
f 101/309/85 102/310/85 100/311/85
f 103/312/86 101/313/86 100/314/86
f 102/315/87 104/316/87 100/317/87
f 104/318/88 103/319/88 100/320/88