# Made in Blockbench 5.0.7 by Foreck
mtllib obelisk.mtl

o cube
v 0.9375 0 0.0625
v 0.0625 0 0.0625
v 0.0625 0.125 0.0625
v 0.9375 0.125 0.0625
v 0.9375 0 0.9375
v 0.9375 0.125 0.9375
v 0.0625 0 0.9375
v 0.0625 0.125 0.9375
vt 0.5625 0.375
vt 1 0.375
vt 1 0.4375
vt 0.5625 0.4375
vt 0.5625 0.375
vt 1 0.375
vt 1 0.4375
vt 0.5625 0.4375
vt 0.5625 0.375
vt 1 0.375
vt 1 0.4375
vt 0.5625 0.4375
vt 0.5625 0.375
vt 1 0.375
vt 1 0.4375
vt 0.5625 0.4375
vt 0.5625 0
vt 1 0
vt 1 0.4375
vt 0.5625 0.4375
vt 0.5625 0
vt 1 0
vt 1 0.4375
vt 0.5625 0.4375
vn 0 0 -1
vn 1 0 0
vn 0 0 1
vn -1 0 0
vn 0 1 0
vn 0 -1 0
usemtl m_e7b1baa7-004b-ab35-9787-fca3c6528051
f 1/1/1 2/2/1 3/3/1 4/4/1
f 5/5/2 1/6/2 4/7/2 6/8/2
f 7/9/3 5/10/3 6/11/3 8/12/3
f 2/13/4 7/14/4 8/15/4 3/16/4
f 8/17/5 6/18/5 4/19/5 3/20/5
f 2/21/6 1/22/6 5/23/6 7/24/6
o cube
v 0.75 0.00125 0
v 0.25 0.00125 0
v 0.25 0.31375 0
v 0.75 0.31375 0
v 0.75 0.00125 1
v 0.75 0.31375 1
v 0.25 0.00125 1
v 0.25 0.31375 1
vt 0 0.46875
vt 0.25 0.46875
vt 0.25 0.625
vt 0 0.625
vt 0 0.25
vt 0.5 0.25
vt 0.5 0.40625
vt 0 0.40625
vt 0 0.46875
vt 0.25 0.46875
vt 0.25 0.625
vt 0 0.625
vt 0 0.25
vt 0.5 0.25
vt 0.5 0.40625
vt 0 0.40625
vt 0.5 0
vt 0.5 0.25
vt 0 0.25
vt 0 0
vt 0.5 0
vt 0.5 0.25
vt 0 0.25
vt 0 0
vn 0 0 -1
vn 1 0 0
vn 0 0 1
vn -1 0 0
vn 0 1 0
vn 0 -1 0
usemtl m_e7b1baa7-004b-ab35-9787-fca3c6528051
f 9/25/7 10/26/7 11/27/7 12/28/7
f 13/29/8 9/30/8 12/31/8 14/32/8
f 15/33/9 13/34/9 14/35/9 16/36/9
f 10/37/10 15/38/10 16/39/10 11/40/10
f 16/41/11 14/42/11 12/43/11 11/44/11
f 10/45/12 9/46/12 13/47/12 15/48/12
o cube
v 1 0.00125 0.25
v 0 0.00125 0.25
v 0 0.31375 0.25
v 1 0.31375 0.25
v 1 0.00125 0.75
v 1 0.31375 0.75
v 0 0.00125 0.75
v 0 0.31375 0.75
vt 0 0.25
vt 0.5 0.25
vt 0.5 0.40625
vt 0 0.40625
vt 0 0.46875
vt 0.25 0.46875
vt 0.25 0.625
vt 0 0.625
vt 0 0.25
vt 0.5 0.25
vt 0.5 0.40625
vt 0 0.40625
vt 0 0.46875
vt 0.25 0.46875
vt 0.25 0.625
vt 0 0.625
vt 0 0
vt 0.5 0
vt 0.5 0.25
vt 0 0.25
vt 0 0
vt 0.5 0
vt 0.5 0.25
vt 0 0.25
vn 0 0 -1
vn 1 0 0
vn 0 0 1
vn -1 0 0
vn 0 1 0
vn 0 -1 0
usemtl m_e7b1baa7-004b-ab35-9787-fca3c6528051
f 17/49/13 18/50/13 19/51/13 20/52/13
f 21/53/14 17/54/14 20/55/14 22/56/14
f 23/57/15 21/58/15 22/59/15 24/60/15
f 18/61/16 23/62/16 24/63/16 19/64/16
f 24/65/17 22/66/17 20/67/17 19/68/17
f 18/69/18 17/70/18 21/71/18 23/72/18
o cube
v 0.75 0.3125 0.25
v 0.25 0.3125 0.25
v 0.25 1.375 0.25
v 0.75 1.375 0.25
v 0.75 0.3125 0.75
v 0.75 1.375 0.75
v 0.25 0.3125 0.75
v 0.25 1.375 0.75
vt 0.5 0.46875
vt 0.75 0.46875
vt 0.75 1
vt 0.5 1
vt 0.25 0.46875
vt 0.5 0.46875
vt 0.5 1
vt 0.25 1
vt 0.25 0.46875
vt 0.5 0.46875
vt 0.5 1
vt 0.25 1
vt 0.25 0.46875
vt 0.5 0.46875
vt 0.5 1
vt 0.25 1
vt 0.75 0.75
vt 1 0.75
vt 1 1
vt 0.75 1
vt 0 1
vt 0 1
vt 0 1
vt 0 1
vn 0 0 -1
vn 1 0 0
vn 0 0 1
vn -1 0 0
vn 0 1 0
vn 0 -1 0
usemtl m_e7b1baa7-004b-ab35-9787-fca3c6528051
f 25/73/19 26/74/19 27/75/19 28/76/19
f 29/77/20 25/78/20 28/79/20 30/80/20
f 31/81/21 29/82/21 30/83/21 32/84/21
f 26/85/22 31/86/22 32/87/22 27/88/22
f 32/89/23 30/90/23 28/91/23 27/92/23
f 26/93/24 25/94/24 29/95/24 31/96/24
o cube
v 0.6875 1.375 0.3125
v 0.3125 1.375 0.3125
v 0.3125 1.5 0.3125
v 0.6875 1.5 0.3125
v 0.6875 1.375 0.6875
v 0.6875 1.5 0.6875
v 0.3125 1.375 0.6875
v 0.3125 1.5 0.6875
vt 0.03125 0.46875
vt 0.21875 0.46875
vt 0.21875 0.53125
vt 0.03125 0.53125
vt 0.03125 0.46875
vt 0.21875 0.46875
vt 0.21875 0.53125
vt 0.03125 0.53125
vt 0.03125 0.46875
vt 0.21875 0.46875
vt 0.21875 0.53125
vt 0.03125 0.53125
vt 0.03125 0.46875
vt 0.21875 0.46875
vt 0.21875 0.53125
vt 0.03125 0.53125
vt 0.78125 0.78125
vt 0.96875 0.78125
vt 0.96875 0.96875
vt 0.78125 0.96875
vn 0 0 -1
vn 1 0 0
vn 0 0 1
vn -1 0 0
vn 0 1 0
usemtl m_e7b1baa7-004b-ab35-9787-fca3c6528051
f 33/97/25 34/98/25 35/99/25 36/100/25
f 37/101/26 33/102/26 36/103/26 38/104/26
f 39/105/27 37/106/27 38/107/27 40/108/27
f 34/109/28 39/110/28 40/111/28 35/112/28
f 40/113/29 38/114/29 36/115/29 35/116/29
o cube
v 0.375 0.75 0.5
v 0.625 0.75 0.5
v 0.625 0.5 0.5
v 0.375 0.5 0.5
v 0.375 0.75 0.25
v 0.375 0.5 0.25
v 0.625 0.75 0.25
v 0.625 0.5 0.25
vt 0 0.875
vt 0.125 0.875
vt 0.125 1
vt 0 1
vt 0 0.875
vt 0.125 0.875
vt 0.125 1
vt 0 1
vt 0 0.875
vt 0.125 0.875
vt 0.125 1
vt 0 1
vt 0 0.875
vt 0.125 0.875
vt 0.125 1
vt 0 1
vt 0 0.875
vt 0.125 0.875
vt 0.125 1
vt 0 1
vt 0 0.875
vt 0.125 0.875
vt 0.125 1
vt 0 1
vn 0 0 -1
vn 1 0 0
vn 0 0 1
vn -1 0 0
vn 0 1 0
vn 0 -1 0
usemtl m_e7b1baa7-004b-ab35-9787-fca3c6528051
f 41/117/30 42/118/30 43/119/30 44/120/30
f 45/121/31 41/122/31 44/123/31 46/124/31
f 47/125/32 45/126/32 46/127/32 48/128/32
f 42/129/33 47/130/33 48/131/33 43/132/33
f 48/133/34 46/134/34 44/135/34 43/136/34
f 42/137/35 41/138/35 45/139/35 47/140/35
o pyramid
v 0.6875 1.5 0.3125
v 0.6875 1.5 0.6875
v 0.3125 1.5 0.6875
v 0.3125 1.5 0.3125
v 0.5 1.8125 0.5
vt 0.1875 0.8125
vt 0.1875 1
vt 0 1
vt 0 0.8125
vt 0.4375 0.6302843749999991
vt 0.625 0.6302843749999991
vt 0.53125 0.812499999999999
vt 0.4375 0.286534374999999
vt 0.625 0.286534374999999
vt 0.53125 0.468749999999999
vt 0.21875 0.6302843749999991
vt 0.40625 0.6302843749999991
vt 0.3125 0.812499999999999
vt 0.15625 0.317784374999999
vt 0.34375 0.317784374999999
vt 0.25 0.499999999999999
vn 0 -1 0
vn 0.8574929257125442 0.5144957554275266 0
vn 0 0.5144957554275266 0.8574929257125442
vn 0 0.5144957554275266 -0.8574929257125442
vn -0.8574929257125442 0.5144957554275266 0
usemtl m_11ff8e9f-1165-0c53-d9c3-8b11a1a7a205
f 49/141/36 50/142/36 51/143/36 52/144/36
f 50/145/37 49/146/37 53/147/37
f 51/148/38 50/149/38 53/150/38
f 49/151/39 52/152/39 53/153/39
f 52/154/40 51/155/40 53/156/40